PathFileType	4	(X/Y/Z)	/Users/itak/Documents/Research/Walk-IL/dataset/trc/00108_00007.trc
DataRate	CameraRate	NumFrames	NumMarkers	Units	OrigDataRate	OrigDataStartFrame	OrigNumFrames
100.000000	100.000000	4	53	mm	100.000000	195	520
Frame#	Time	RPSI			LPSI			L3			STRN			T10			C7			CLAV			RBAK			LBAK			LSHO			LUPA			LAEL			LAOL			LWTS			LWPS			LFRA			LIFD			LHPS			LHTS			RSHO			RUPA			RAEL			RAOL			RWTS			RWPS			RFRA			RIFD			RHTS			RHPS			RBHD			LFHD			RFHD			LBHD			LHIP			RHIP			RASI			LASI			LKNE			LTHI			LANK			LTIP			LTOE			LMT1			LMT5			LHEE			RKNE			RTHI			RANK			RTIP			RTOE			RMT1			RMT5			RHEE			
		X1	Y1	Z1	X2	Y2	Z2	X3	Y3	Z3	X4	Y4	Z4	X5	Y5	Z5	X6	Y6	Z6	X7	Y7	Z7	X8	Y8	Z8	X9	Y9	Z9	X10	Y10	Z10	X11	Y11	Z11	X12	Y12	Z12	X13	Y13	Z13	X14	Y14	Z14	X15	Y15	Z15	X16	Y16	Z16	X17	Y17	Z17	X18	Y18	Z18	X19	Y19	Z19	X20	Y20	Z20	X21	Y21	Z21	X22	Y22	Z22	X23	Y23	Z23	X24	Y24	Z24	X25	Y25	Z25	X26	Y26	Z26	X27	Y27	Z27	X28	Y28	Z28	X29	Y29	Z29	X30	Y30	Z30	X31	Y31	Z31	X32	Y32	Z32	X33	Y33	Z33	X34	Y34	Z34	X35	Y35	Z35	X36	Y36	Z36	X37	Y37	Z37	X38	Y38	Z38	X39	Y39	Z39	X40	Y40	Z40	X41	Y41	Z41	X42	Y42	Z42	X43	Y43	Z43	X44	Y44	Z44	X45	Y45	Z45	X46	Y46	Z46	X47	Y47	Z47	X48	Y48	Z48	X49	Y49	Z49	X50	Y50	Z50	X51	Y51	Z51	X52	Y52	Z52	X53	Y53	Z53	

196	1.95	253.0585021972656	1107.140502929688	-276.421875	272.7393493652344	1108.743286132812	-411.6207885742188	258.3809814453125	1148.690551757812	-349.2361145019531	488.762451171875	1344.574584960938	-323.6533813476562	230.8639526367188	1302.615966796875	-359.1029968261719	282.0379333496094	1592.322875976562	-368.1690063476562	458.2931213378906	1480.6025390625	-331.709716796875	210.7100067138672	1410.063842773438	-290.1779174804688	289.7088317871094	1573.606567382812	-469.3934020996094	387.3370056152344	1558.861694335938	-522.9225463867188	376.0351257324219	1427.0068359375	-595.4910888671875	396.7915344238281	1207.678833007812	-614.337158203125	322.6043090820312	1193.047729492188	-568.748046875	505.5306396484375	959.5841064453125	-556.7797241210938	429.4944763183594	926.4932250976562	-592.981201171875	418.1916809082031	1092.956176757812	-615.2120971679688	527.8068237304688	766.26220703125	-531.47607421875	464.0438232421875	854.099853515625	-590.0447387695312	528.728515625	872.1130981445312	-565.4668579101562	308.1865844726562	1569.947021484375	-178.7570953369141	279.5228576660156	1496.356323242188	-119.9202346801758	256.0895690917969	1202.550903320312	-106.3397979736328	277.9471740722656	1199.790161132812	-201.4222412109375	404.0234680175781	967.4544677734375	-64.9775390625	325.3173522949219	946.274169921875	-61.58493423461914	275.2926330566406	1129.56884765625	-83.57273864746094	445.3226318359375	775.098388671875	-61.46277618408203	435.3309936523438	861.9501342773438	-44.66434860229492	363.7813110351562	849.8413696289062	-40.8367805480957	304.7981262207031	1750.596923828125	-273.2877502441406	466.4537048339844	1835.8017578125	-396.3045043945312	457.7636413574219	1839.560302734375	-266.9728088378906	303.3234558105469	1750.061157226562	-408.8633117675781	379.1250305175781	1020.3134765625	-507.3720703125	370.3783264160156	1017.510559082031	-141.0769653320312	452.6813049316406	1089.629028320312	-190.0119476318359	480.8959045410156	1084.969604492188	-453.6145629882812	427.9901733398438	512.0238647460938	-461.2175903320312	405.0343322753906	659.6521606445312	-493.1946716308594	147.0235290527344	63.65121459960938	-483.1454467773438	252.5743255615234	298.3627014160156	-503.7167053222656	366.544189453125	35.69276809692383	-402.1729736328125	284.1861877441406	46.64531326293945	-379.456787109375	268.8697509765625	36.36946105957031	-495.1464233398438	73.61981201171875	87.0833740234375	-429.7625732421875	483.9816284179688	540.262451171875	-171.1988677978516	430.7479248046875	811.0147094726562	-139.6278076171875	522.6798706054688	25.81564140319824	-196.3763427734375	494.535888671875	407.5037536621094	-160.2519683837891	753.4840087890625	42.22190856933594	-250.8921966552734	693.3002319335938	34.05560302734375	-292.1847839355469	656.5838012695312	36.57266998291016	-175.1771087646484	465.5027465820312	30.43091011047363	-246.0484161376953	
197	1.96	244.7689514160156	1106.276611328125	-278.7245788574219	265.2750549316406	1108.308349609375	-413.8227844238281	250.4119415283203	1148.393920898438	-351.7133483886719	481.9225769042969	1343.61376953125	-324.9289855957031	223.8609313964844	1302.5986328125	-362.0241088867188	276.6715393066406	1592.110717773438	-370.9651489257812	452.2232055664062	1479.826904296875	-333.343505859375	204.0350189208984	1410.114990234375	-293.4105224609375	285.0347290039062	1573.384643554688	-472.1599731445312	382.9967041015625	1558.300415039062	-524.9815673828125	372.0444641113281	1426.498046875	-597.7197265625	392.7457885742188	1207.12890625	-616.2633056640625	318.0671691894531	1192.563720703125	-571.41650390625	500.8976440429688	959.1002197265625	-557.4527587890625	425.2787780761719	925.9374389648438	-594.3923950195312	414.1259765625	1092.39892578125	-616.8681030273438	522.907958984375	765.8802490234375	-531.7919311523438	459.8054504394531	853.589111328125	-591.0241088867188	524.19677734375	871.6233520507812	-565.7987670898438	301.3994445800781	1569.57421875	-181.3826904296875	272.2107543945312	1495.971801757812	-122.7923278808594	248.2903900146484	1202.215209960938	-109.9930419921875	271.3869934082031	1199.333740234375	-204.6527557373047	395.1333312988281	966.927490234375	-65.8724365234375	316.3247985839844	945.8920288085938	-63.94877624511719	266.938720703125	1129.174560546875	-86.71101379394531	435.9747924804688	774.5138549804688	-61.03800582885742	425.8198547363281	861.4215087890625	-44.66080856323242	354.1924133300781	849.45068359375	-42.27891159057617	299.1703186035156	1750.003295898438	-275.8832397460938	461.2691345214844	1835.053344726562	-398.4291076660156	452.1194458007812	1839.042358398438	-269.1463012695312	298.1761779785156	1749.24072265625	-411.4247741699219	372.4687805175781	1019.898254394531	-509.0577087402344	361.3425903320312	1016.411987304688	-142.7558441162109	443.6911010742188	1088.756958007812	-191.4302215576172	473.7633972167969	1084.111328125	-454.8218078613281	418.4922790527344	511.9263305664062	-461.2734375	396.3576049804688	659.214111328125	-493.9463806152344	144.9522552490234	60.09964370727539	-480.5455322265625	246.1917572021484	295.4245910644531	-502.4090881347656	366.8005065917969	35.48524475097656	-402.0673522949219	283.8206481933594	45.57733154296875	-378.5414733886719	267.6467895507812	36.62624359130859	-494.2493286132812	71.23234558105469	81.09331512451172	-426.4016723632812	480.0632934570312	540.6900634765625	-172.0781555175781	423.3333435058594	810.4827880859375	-140.9092254638672	522.7227172851562	25.87344169616699	-196.0909576416016	491.4603576660156	408.0359497070312	-160.7552185058594	753.2662353515625	42.99435806274414	-250.8151550292969	693.002685546875	35.4691047668457	-291.8722534179688	656.7428588867188	36.52787780761719	-175.1902618408203	465.3979187011719	30.69657707214355	-245.7068481445312	
198	1.97	236.3340301513672	1105.453002929688	-281.0704040527344	257.6937255859375	1107.946166992188	-416.0374755859375	242.2540740966797	1148.133666992188	-354.2167358398438	474.9443054199219	1342.709228515625	-326.0737609863281	216.8536834716797	1302.668334960938	-364.8753051757812	271.2794494628906	1591.985595703125	-373.70751953125	446.1048278808594	1479.140502929688	-334.8895874023438	197.3436279296875	1410.294067382812	-296.5556030273438	280.3544311523438	1573.240844726562	-474.8617248535156	378.6483764648438	1557.820678710938	-526.9586791992188	368.05419921875	1426.092529296875	-599.8728637695312	388.6187744140625	1206.698852539062	-618.1644897460938	313.4500122070312	1192.199951171875	-574.0619506835938	496.1640319824219	958.7283935546875	-558.1227416992188	420.9591674804688	925.490234375	-595.7826538085938	409.9714660644531	1091.9521484375	-618.5096435546875	517.9054565429688	765.6006469726562	-532.0936279296875	455.4662170410156	853.18310546875	-591.9857788085938	519.5609741210938	871.2522583007812	-566.0961303710938	294.6044921875	1569.37646484375	-183.9700927734375	264.8881530761719	1495.800659179688	-125.591194152832	240.4349517822266	1202.092529296875	-113.4709625244141	264.8292846679688	1199.102661132812	-207.677001953125	386.1590270996094	966.5841674804688	-66.83763885498047	307.2648315429688	945.7081909179688	-66.25856781005859	258.5416870117188	1129.000244140625	-89.69964599609375	426.4622497558594	774.0894165039062	-60.7750129699707	416.2258605957031	861.0619506835938	-44.77978134155273	344.5267333984375	849.250732421875	-43.72914123535156	293.5562744140625	1749.516357421875	-278.4677124023438	456.0595703125	1834.376098632812	-400.6074829101562	446.489013671875	1838.640991210938	-271.3698425292969	293.0112915039062	1748.48095703125	-413.96923828125	365.7208862304688	1019.559020996094	-510.7203979492188	352.0807189941406	1015.378295898438	-144.4303436279297	434.5098876953125	1087.96533203125	-192.7440795898438	466.5482177734375	1083.365234375	-455.9165344238281	409.4638061523438	511.9730834960938	-461.5357666015625	387.9596252441406	658.9273071289062	-494.7835388183594	143.2141265869141	56.8404426574707	-478.3131408691406	240.3966827392578	292.7217712402344	-501.3607177734375	367.032958984375	35.28150939941406	-402.05126953125	283.5355834960938	44.6063346862793	-377.7431640625	266.6038513183594	36.83869934082031	-493.4753723144531	69.2935791015625	75.52337646484375	-423.5164489746094	476.1779479980469	541.3106079101562	-172.7996368408203	415.6845397949219	810.0630493164062	-142.0769500732422	522.6951904296875	25.99807357788086	-195.7290496826172	488.4024353027344	408.7438354492188	-161.1314849853516	752.9383544921875	44.26626968383789	-250.6439514160156	692.5554809570312	37.38977813720703	-291.4949645996094	656.8969116210938	36.5483283996582	-175.2159423828125	465.16748046875	31.09826278686523	-245.2343597412109	
199	1.98	227.7786712646484	1104.686767578125	-283.4520568847656	250.0264282226562	1107.656982421875	-418.2580871582031	233.9403228759766	1147.908203125	-356.7360534667969	467.8383483886719	1341.849365234375	-327.0752563476562	209.8679809570312	1302.813598632812	-367.6355590820312	265.8634338378906	1591.94189453125	-376.3733825683594	439.9320678710938	1478.527709960938	-336.3263244628906	190.6420440673828	1410.594116210938	-299.5864868164062	275.6525268554688	1573.161987304688	-477.4745178222656	374.2683715820312	1557.404418945312	-528.8403930664062	364.037109375	1425.77197265625	-601.9330444335938	384.4028930664062	1206.366577148438	-620.0414428710938	308.7504272460938	1191.930419921875	-576.6828002929688	491.3327026367188	958.4461669921875	-558.7880859375	416.5386962890625	925.13232421875	-597.15625	405.7300720214844	1091.59521484375	-620.1370239257812	512.8180541992188	765.3971557617188	-532.37890625	451.031494140625	852.8607177734375	-592.9382934570312	514.82861328125	870.9852294921875	-566.3661499023438	287.8206481933594	1569.34716796875	-186.4942779541016	257.5740051269531	1495.83642578125	-128.2902069091797	232.5093231201172	1202.173950195312	-116.7123107910156	258.3212890625	1199.092529296875	-210.4483947753906	377.1341552734375	966.4204711914062	-67.88674163818359	298.1689758300781	945.71533203125	-68.47122192382812	250.1112518310547	1129.039428710938	-92.50539398193359	416.8443298339844	773.8231811523438	-60.76250839233398	406.6064147949219	860.8650512695312	-45.08681869506836	334.8416748046875	849.23046875	-45.19009780883789	287.9589233398438	1749.140258789062	-281.02099609375	450.8171081542969	1833.768676757812	-402.8264465332031	440.8673706054688	1838.3564453125	-273.6332092285156	287.8258666992188	1747.783081054688	-416.4806518554688	358.8745422363281	1019.287536621094	-512.3519897460938	342.6353454589844	1014.437561035156	-146.0934600830078	425.1846313476562	1087.264038085938	-193.9500579833984	459.2680969238281	1082.72509765625	-456.8933715820312	400.9196166992188	512.1436767578125	-462.0463256835938	379.8515319824219	658.7816162109375	-495.7373962402344	141.7837677001953	53.85537719726562	-476.5504455566406	235.2364196777344	290.2342529296875	-500.6603698730469	367.1955261230469	35.10697555541992	-402.1042785644531	283.298583984375	43.76057434082031	-377.0872192382812	265.7569274902344	36.98566818237305	-492.8735961914062	67.75166320800781	70.38375091552734	-421.2398376464844	472.3564147949219	542.1530151367188	-173.3435974121094	407.8529052734375	809.7921142578125	-143.1035003662109	522.5062255859375	26.19238662719727	-195.2799072265625	485.3733825683594	409.640380859375	-161.3656921386719	752.4008178710938	46.16276168823242	-250.3369140625	691.8656005859375	39.87728881835938	-291.0493774414062	656.9600219726562	36.67455673217773	-175.2480621337891	464.7165222167969	31.63238334655762	-244.6218414306641	
